PathFileType	4	(X/Y/Z)	../motion_lab\static\static_01\task.trc
DataRate	CameraRate	NumFrames	NumMarkers	Units	OrigDataRate	OrigDataStartFrame	OrigNumFrames
200.000000	200.000000	4	73	mm	200.000000	433	693
Frame#	Time	Athlete_3:GLAB			Athlete_3:RFHD			Athlete_3:LFHD			Athlete_3:C7			Athlete_3:T6			Athlete_3:SPINMOL			Athlete_3:SPINM2			Athlete_3:SPINM3			Athlete_3:T12			Athlete_3:BELTOL			Athlete_3:BELT2			Athlete_3:BELT3			Athlete_3:SACROL			Athlete_3:SACR2			Athlete_3:SACR3			Athlete_3:LASI			Athlete_3:RASI			Athlete_3:LPSI			Athlete_3:RPSI			Athlete_3:LTHOL			Athlete_3:LTH2			Athlete_3:LTH3			Athlete_3:LKNEL			Athlete_3:LKNEM			Athlete_3:LFIB			Athlete_3:LSHAOL			Athlete_3:LSHA2			Athlete_3:LSHA3			Athlete_3:LMALL			Athlete_3:LMALM			Athlete_3:LHEE			Athlete_3:LTOE			Athlete_3:LM5			Athlete_3:RTHOL			Athlete_3:RTH2			Athlete_3:RTH3			Athlete_3:RKNEL			Athlete_3:RKNEM			Athlete_3:RFIB			Athlete_3:RSHAOL			Athlete_3:RSHA2			Athlete_3:RSHA3			Athlete_3:RMALL			Athlete_3:RMALM			Athlete_3:RHEE			Athlete_3:RTOE			Athlete_3:RM5			Athlete_3:STRN			Athlete_3:XIPH			Athlete_3:LACR			Athlete_3:LUAOL			Athlete_3:LUA2			Athlete_3:LUA3			Athlete_3:LCUBL			Athlete_3:LCUBM			Athlete_3:LLAOL			Athlete_3:LLA2			Athlete_3:LLA3			Athlete_3:LWRR			Athlete_3:LWRU			Athlete_3:RACR			Athlete_3:RUAOL			Athlete_3:RUA2			Athlete_3:RUA3			Athlete_3:RCUBL			Athlete_3:RCUBM			Athlete_3:RLAOL			Athlete_3:RLA2			Athlete_3:RLA3			Athlete_3:RWRR			Athlete_3:RWRU			Bar:BL			Bar:BR			
		X1	Y1	Z1	X2	Y2	Z2	X3	Y3	Z3	X4	Y4	Z4	X5	Y5	Z5	X6	Y6	Z6	X7	Y7	Z7	X8	Y8	Z8	X9	Y9	Z9	X10	Y10	Z10	X11	Y11	Z11	X12	Y12	Z12	X13	Y13	Z13	X14	Y14	Z14	X15	Y15	Z15	X16	Y16	Z16	X17	Y17	Z17	X18	Y18	Z18	X19	Y19	Z19	X20	Y20	Z20	X21	Y21	Z21	X22	Y22	Z22	X23	Y23	Z23	X24	Y24	Z24	X25	Y25	Z25	X26	Y26	Z26	X27	Y27	Z27	X28	Y28	Z28	X29	Y29	Z29	X30	Y30	Z30	X31	Y31	Z31	X32	Y32	Z32	X33	Y33	Z33	X34	Y34	Z34	X35	Y35	Z35	X36	Y36	Z36	X37	Y37	Z37	X38	Y38	Z38	X39	Y39	Z39	X40	Y40	Z40	X41	Y41	Z41	X42	Y42	Z42	X43	Y43	Z43	X44	Y44	Z44	X45	Y45	Z45	X46	Y46	Z46	X47	Y47	Z47	X48	Y48	Z48	X49	Y49	Z49	X50	Y50	Z50	X51	Y51	Z51	X52	Y52	Z52	X53	Y53	Z53	X54	Y54	Z54	X55	Y55	Z55	X56	Y56	Z56	X57	Y57	Z57	X58	Y58	Z58	X59	Y59	Z59	X60	Y60	Z60	X61	Y61	Z61	X62	Y62	Z62	X63	Y63	Z63	X64	Y64	Z64	X65	Y65	Z65	X66	Y66	Z66	X67	Y67	Z67	X68	Y68	Z68	X69	Y69	Z69	X70	Y70	Z70	X71	Y71	Z71	X72	Y72	Z72	X73	Y73	Z73	

434	2.165	1216.224853515625	1572.597534179688	355.451629638672	1139.647216796875	1587.884643554688	296.8754272460939	1291.769897460938	1588.270385742188	292.476531982422	1212.474365234375	1448.698364257813	131.0091400146485	1227.032104492188	1243.6396484375	77.41827392578128	1231.198486328125	1211.335083007813	73.23710632324222	1179.24658203125	1150.495727539063	68.52976989746097	1228.07568359375	1149.568603515625	78.05505371093753	1226.797119140625	1108.891357421875	91.40153503417972	1226.042114257813	1086.344360351563	68.13043975830081	1172.905883789063	1026.779418945313	69.66272735595706	1222.509765625	1024.548461914063	62.06288528442386	1247.869262695313	975.3367309570317	73.06788635253909	1198.0888671875	984.9382324218755	80.20302581787112	1209.302368164063	926.9612426757817	49.61745452880862	1336.568359375	942.6650390625005	289.0289306640626	1109.04736328125	942.3280639648442	293.2488708496095	1259.671020507813	991.2943725585942	84.63319396972659	1170.542236328125	990.0626831054692	85.44157409667972	1443.893798828125	737.5355224609377	202.9190673828126	1426.955688476563	676.970886230469	153.6890563964844	1440.964965820313	675.5349121093752	202.0054473876954	1427.2177734375	497.8719482421877	193.3235931396486	1283.44677734375	466.0848693847659	216.7942352294923	1428.254760742188	442.3052673339846	153.1290283203126	1449.832275390625	326.2738037109376	145.3658447265626	1444.46435546875	260.3099060058595	102.0739974975587	1450.0693359375	264.3979797363282	151.4249267578126	1434.080444335938	85.37007141113284	126.1859588623047	1350.439086914063	96.25845336914068	169.4528961181641	1374.78466796875	38.94031143188478	78.45707702636722	1391.227172851563	47.30828857421876	289.6769104003907	1492.137817382813	32.12021255493165	238.5750732421876	1006.2900390625	708.1875610351565	175.8393249511719	992.6728515625005	635.9283447265627	207.1549835205079	1009.466918945313	647.5731201171877	161.3750457763672	1013.838134765625	496.8524169921877	161.1952209472657	1151.644897460938	461.4716491699221	209.3828582763673	1015.335998535157	442.4855957031252	117.1343078613282	998.5269165039067	323.2663879394532	91.79492187500003	983.1813354492192	256.0037841796876	131.2553100585938	1002.347351074219	262.1716308593751	85.21121215820315	1016.802490234375	86.77118682861331	90.08896636962893	1084.295043945313	96.99085235595709	153.0820922851563	1077.677490234375	38.25011444091798	58.05222320556643	1022.269165039063	43.20183181762697	261.6016845703126	937.2218627929692	40.96274948120119	202.3519439697267	1224.871337890625	1366.343139648438	280.2554016113282	1226.790161132813	1208.827880859375	318.1303710937501	1400.630004882813	1412.3623046875	141.2951965332032	1514.013793945313	1347.03466796875	129.2919616699219	1556.542968750001	1296.644653320313	120.2311553955079	1573.478393554688	1332.271118164063	154.2497558593751	1681.904296875001	1295.014282226563	166.2497253417969	1631.885620117188	1208.9697265625	188.7784118652344	1767.554077148438	1263.204956054688	195.4400329589845	1821.901733398438	1226.765869140625	201.3368377685548	1815.498046875001	1258.158935546875	239.9941558837892	1860.649780273438	1186.679443359375	309.5266418457032	1903.379150390626	1208.738891601563	252.2642669677736	1041.932739257813	1402.084594726563	158.2506103515626	909.4975585937505	1335.264770507813	168.655746459961	866.4688110351567	1326.672607421875	218.7320861816407	845.9807739257817	1315.44580078125	173.5496063232422	795.4689941406255	1288.890014648438	166.0172424316407	808.9765014648442	1195.46826171875	222.0169982910157	672.9283447265627	1271.305908203125	223.4916992187501	633.0801391601565	1259.671142578125	274.2522277832032	612.8798828125002	1246.927734375	229.3672790527345	579.9803466796877	1179.84619140625	311.9601440429689	543.6391601562502	1211.988647460938	245.6934356689454	2307.397949218751	1285.463623046875	1512.0810546875	83.96176910400393	1283.405883789063	1540.653198242188	
435	2.17	1216.228637695313	1572.615478515626	355.405731201172	1139.654052734375	1587.905883789063	296.8150939941407	1291.772827148438	1588.281127929688	292.4440917968751	1212.475952148438	1448.697631835938	131.0067901611329	1227.044799804688	1243.642211914063	77.414665222168	1231.214965820313	1211.341796875	73.22286224365237	1179.256591796875	1150.496459960938	68.52039337158206	1228.091918945313	1149.574584960938	78.03485870361331	1226.802734375	1108.892333984375	91.39309692382815	1226.055053710938	1086.34326171875	68.11823272705081	1172.919799804688	1026.77392578125	69.65454864501956	1222.513305664063	1024.546020507813	62.05512619018558	1247.910522460938	975.3740844726567	73.02632904052737	1198.124877929688	984.9709472656255	80.11787414550784	1209.297119140625	926.9553222656255	49.61065292358401	1336.570190429688	942.6616210937505	289.0250854492189	1109.04736328125	942.3312377929692	293.2430725097657	1259.685424804688	991.302856445313	84.60276794433597	1170.559814453125	990.0588989257817	85.4355163574219	1443.893920898438	737.5333251953127	202.934051513672	1426.956665039063	676.9632568359377	153.6835327148438	1441.232299804688	675.6303710937502	202.0710601806642	1427.2265625	497.8711853027346	193.3421020507814	1283.209594726563	466.1017150878909	216.8963623046876	1428.260986328125	442.305114746094	153.1397857666016	1449.828735351563	326.2707824707032	145.3680114746094	1444.461669921875	260.3136596679689	102.0769729614258	1450.070678710938	264.3933410644532	151.4250793457032	1434.086791992188	85.37043762207034	126.1927566528321	1350.436767578125	96.25798034667974	169.4588165283204	1374.7880859375	38.93812561035158	78.45310974121097	1391.227783203125	47.31159591674806	289.6855773925782	1492.139526367188	32.12132263183595	238.5767517089845	1006.294189453125	708.1860351562502	175.8253326416016	992.6704101562505	635.9376220703127	207.1557922363282	1009.463623046875	647.5761718750002	161.3585815429688	1013.833557128907	496.8562622070315	161.1862335205079	1151.654663085938	461.4708251953127	209.4003448486329	1015.335021972657	442.4895324707034	117.1271286010743	998.5249023437505	323.284149169922	91.80225372314456	983.188110351563	256.020233154297	131.2659301757813	1002.348937988282	262.1830139160157	85.20881652832034	1016.8037109375	86.76924133300784	90.08931732177737	1084.29736328125	96.99279785156256	153.0824737548829	1077.684814453125	38.24277114868165	58.05786132812503	1022.260681152344	43.2006072998047	261.6064453125001	937.223510742188	40.96556472778322	202.3545379638673	1224.869873046875	1366.358276367188	280.2529907226564	1226.780029296875	1208.839965820313	318.1315307617189	1400.635986328125	1412.385864257813	141.3135375976563	1514.016479492188	1347.04736328125	129.2994995117188	1556.526977539063	1296.648315429688	120.2282791137696	1573.474609375001	1332.261840820313	154.2438964843751	1681.900634765626	1294.983764648438	166.2270050048829	1631.868530273438	1208.955444335938	188.7653198242188	1767.436035156251	1263.240966796875	195.3565673828126	1821.898803710938	1226.740600585938	201.3131713867189	1815.498657226563	1258.143310546875	239.957733154297	1860.647583007813	1186.666137695313	309.5117797851564	1903.366577148438	1208.701782226563	252.2344970703126	1041.933349609375	1402.09228515625	158.2442321777344	909.4153442382817	1335.217041015625	168.561264038086	866.4787597656255	1326.657592773438	218.7064361572267	845.9815063476567	1315.442993164063	173.5321502685547	795.4603881835942	1288.888305664063	166.0076141357422	808.9790649414067	1195.466064453125	221.9959106445314	672.8362426757815	1271.28125	223.4566650390626	633.2125244140627	1259.770629882813	274.1409606933595	612.8593750000002	1246.923583984375	229.3489685058595	579.9902343750002	1179.822509765625	311.9379882812501	543.632507324219	1211.971313476563	245.6726989746095	2307.392333984376	1285.4609375	1512.0693359375	83.95537567138675	1283.406494140625	1540.654174804688	
436	2.175	1216.214233398438	1572.639038085938	355.3762512207032	1139.651489257813	1587.905639648438	296.7580566406251	1291.772583007813	1588.295898437501	292.4024963378907	1212.48681640625	1448.710693359375	130.9785766601563	1227.056274414063	1243.64111328125	77.40326690673831	1231.212524414063	1211.339721679688	73.2115173339844	1179.261840820313	1150.503540039063	68.50917053222659	1228.1103515625	1149.542846679688	78.4611740112305	1226.810180664063	1108.890625	91.38162994384768	1226.062622070313	1086.340698242188	68.11386871337893	1172.927001953125	1026.773803710938	69.63882446289065	1222.530029296875	1024.54150390625	62.04254531860354	1247.913818359375	975.370971679688	73.06961059570315	1198.07421875	984.9328002929692	80.17119598388675	1209.298095703125	926.9369506835942	49.60015106201175	1336.567749023438	942.660522460938	289.0209350585939	1109.050659179688	942.3222045898442	293.2469482421876	1259.705322265625	991.2942504882817	84.5939865112305	1170.56494140625	990.056762695313	85.42413330078128	1443.89501953125	737.5360107421877	202.9545898437501	1426.94921875	676.9617309570315	153.6974334716797	1440.967041015625	675.5362548828127	202.0438537597657	1427.22802734375	497.8657226562502	193.3426971435548	1283.215209960938	466.1079711914065	216.8988189697267	1428.268310546875	442.3011779785159	153.1479644775391	1449.815551757813	326.2562866210939	145.3830261230469	1444.46044921875	260.3125915527345	102.0754013061524	1450.067626953125	264.3879394531251	151.4296417236329	1434.081665039063	85.36912536621097	126.1921310424805	1350.439453125	96.26320648193365	169.4375457763672	1374.782836914063	38.9375686645508	78.46362304687503	1391.22607421875	47.31357574462892	289.6804199218751	1492.142944335938	32.123836517334	238.5786895751954	1006.300598144532	708.1864013671877	175.8162689208985	992.6651000976567	635.9405517578127	207.1344146728517	1009.474609375	647.563659667969	161.3576660156251	1013.833312988282	496.8549499511721	161.1781005859376	1151.64306640625	461.4650573730471	209.3839721679689	1015.339111328125	442.4864807128909	117.122055053711	998.544067382813	323.2911987304689	91.828727722168	983.181274414063	256.0086975097657	131.254135131836	1002.353271484375	262.1838378906251	85.19593811035159	1016.798950195313	86.76387023925784	90.09331512451175	1084.29248046875	96.99462127685553	153.0804290771485	1077.677368164063	38.24535369873048	58.05767440795901	1022.269958496094	43.20116424560548	261.6001586914064	937.218627929688	40.96776580810548	202.3558959960939	1224.869262695313	1366.375366210938	280.251434326172	1226.777465820313	1208.849853515625	318.1268615722657	1400.644775390625	1412.401245117188	141.3312225341797	1514.013793945313	1347.04248046875	129.2816009521485	1556.517456054688	1296.636962890625	120.2323989868165	1573.473388671876	1332.25537109375	154.2339630126954	1681.892211914063	1294.963012695313	166.2010498046876	1631.868530273438	1208.950561523438	188.7630310058594	1767.412475585938	1263.199340820313	195.3425140380861	1821.895629882813	1226.704223632813	201.2956542968751	1815.496215820313	1258.120361328125	239.9295196533204	1860.638793945313	1186.641479492188	309.4843750000001	1903.356445312501	1208.664794921875	252.2168273925782	1041.923950195313	1402.093383789063	158.2370605468751	909.500854492188	1335.26611328125	168.6444396972657	866.4645996093755	1326.650756835938	218.6992950439454	845.9812011718755	1315.442993164063	173.5166320800782	795.465454101563	1288.88427734375	165.9888000488282	808.9861450195317	1195.346557617188	221.8699188232423	672.9346313476565	1271.151489257813	223.5325622558595	633.2219238281252	1259.754272460938	274.1203918457032	612.872497558594	1246.892822265625	229.3337860107423	579.9936523437502	1179.802978515625	311.9122009277345	543.6350097656252	1211.96484375	245.6542510986329	2307.395751953126	1285.456298828125	1512.077514648438	83.95355987548831	1283.412475585938	1540.657226562501	
437	2.18	1216.2138671875	1572.660888671876	355.3472900390626	1139.6533203125	1587.907958984376	296.7047424316407	1291.777099609375	1588.306274414063	292.3766479492189	1212.485473632813	1448.712524414063	130.9558563232422	1227.051025390625	1243.648559570313	77.39536285400393	1231.223266601563	1211.339599609375	73.20868682861331	1179.266723632813	1150.50244140625	68.49833679199222	1228.115356445313	1149.54736328125	78.45670318603518	1226.825073242188	1108.891357421875	91.3821716308594	1226.075073242188	1086.33642578125	68.10517883300784	1172.9453125	1026.77197265625	69.63664245605472	1222.537231445313	1024.534912109375	62.04310607910159	1247.930786132813	975.3402709960942	73.03562164306643	1198.14501953125	984.9694213867192	80.08581542968753	1209.324096679688	926.9338989257817	49.59324645996097	1336.569580078125	942.6651000976567	289.0270996093751	1109.043823242188	942.3353881835942	293.2267456054689	1259.710205078125	991.295532226563	84.598258972168	1170.572998046875	990.0571289062505	85.407341003418	1443.90283203125	737.5343017578127	202.9682769775392	1426.952880859375	676.9685668945315	153.7191009521485	1440.955688476563	675.5347290039065	202.0437469482423	1427.237060546875	497.8644714355471	193.3522338867189	1283.467651367188	466.0794372558596	216.8216857910157	1428.274780273438	442.3041076660159	153.1551513671876	1449.828491210938	326.2618103027345	145.3743286132813	1444.45458984375	260.3110961914064	102.0731048583985	1450.070434570313	264.3890991210939	151.4275207519532	1434.084838867188	85.36968994140628	126.1886215209962	1350.44091796875	96.26388549804693	169.440170288086	1374.783203125	38.93611526489259	78.46305084228518	1391.226196289063	47.31324768066408	289.6785583496095	1492.142822265625	32.12596893310548	238.5836181640626	1006.305786132813	708.1885986328127	175.8090057373047	992.675170898438	635.942077636719	207.1242675781251	1009.481018066407	647.5694580078127	161.3540496826172	1013.829956054688	496.8523254394534	161.1690521240235	1151.639282226563	461.4640808105471	209.3895874023439	1015.341674804688	442.4817199707034	117.1172561645508	998.5264282226567	323.2803955078126	91.78666687011722	983.179565429688	256.0122680664064	131.2566223144532	1002.352233886719	262.1849060058595	85.20661926269534	1016.800659179688	86.76355743408206	90.08905029296878	1084.293212890625	96.99294281005865	153.0816802978516	1077.683837890625	38.24880981445314	58.05429840087893	1022.307861328125	43.19510650634767	261.592498779297	937.213256835938	40.96440887451173	202.3574523925782	1224.862915039063	1366.395629882813	280.2391357421876	1226.774169921875	1208.858520507813	318.1212768554689	1400.64990234375	1412.420166015625	141.3366699218751	1514.023071289063	1347.029418945313	129.2812957763672	1556.504760742188	1296.62890625	120.2193679809571	1573.479248046876	1332.248901367188	154.2383880615235	1681.893066406251	1294.942626953125	166.1811828613282	1631.852172851563	1208.931030273438	188.7671966552735	1767.432250976563	1263.177856445313	195.3409423828126	1821.874877929688	1226.652221679688	201.266326904297	1815.496826171876	1258.091430664063	239.9098510742189	1860.633178710938	1186.62109375	309.4793090820314	1903.348144531251	1208.630493164063	252.1973876953126	1041.921264648438	1402.099975585938	158.2345275878907	909.4904785156255	1335.259887695313	168.5849609375001	866.453735351563	1326.661376953125	218.7002716064454	845.9790039062505	1315.443481445313	173.4901123046876	795.4677734375005	1288.872192382813	165.9770965576172	808.9902343750005	1195.344604492188	221.8529815673829	672.8223876953127	1271.26220703125	223.4280395507814	633.213317871094	1259.732543945313	274.1096496582032	612.8258056640627	1246.99951171875	229.2536163330079	579.993347167969	1179.777099609375	311.8934020996095	543.6392211914065	1211.951904296875	245.6361541748048	2307.402832031251	1285.451293945313	1512.08056640625	83.95737457275393	1283.40478515625	1540.649658203126	
